OpenSim_Sub06_CSBaseline_RCS.mot
version=1
nRows=60
nColumns=11
inDegrees=no
endheader
time	Top_Thigh	Med_Thigh	Bot_Thigh	Top_Shank	2nd_Top_Shank	2nd_Bot_Shank	Bot_Shank	BNOx	BNOy	BNOZ
0	1977.33355421	1984.91865189	1748.98506136	1409.79939937	1576.69308987	1358.63647849	1295.17298191	344.54705817	-77.37916278	174.19078326
0.01000000	1985.45793981	1988.38981964	1748.97487724	1409.38795060	1577.90653944	1359.80028394	1293.63250144	344.52515627	-77.37910183	174.19038214
0.02000000	1993.29494698	1991.70014192	1748.99565994	1409.02682684	1578.92147970	1360.90176774	1292.13622965	344.50235175	-77.37990739	174.18995128
0.03000000	1999.43700133	1994.34893844	1749.05888189	1408.86113751	1579.47400748	1361.75050033	1290.93057237	344.47817629	-77.38076657	174.19156449
0.04000000	2003.69178563	1996.26422140	1749.15958934	1408.90520464	1579.56650618	1362.31858169	1290.05409364	344.45267051	-77.38147185	174.19538493
0.05000000	2006.27597229	1997.51827765	1749.28730036	1409.12933429	1579.29097683	1362.63281043	1289.47540918	344.42604636	-77.38201947	174.20093276
0.06000000	2007.40654193	1998.18350276	1749.43152889	1409.50379936	1578.73948799	1362.72002639	1289.16308201	344.39851586	-77.38240580	174.20772765
0.07000000	2007.30047519	1998.33229228	1749.58178884	1409.99887275	1578.00410824	1362.60706939	1289.08567517	344.37029106	-77.38262722	174.21528927
0.08000000	2006.17475269	1998.03704180	1749.72759413	1410.58482736	1577.17690612	1362.32077927	1289.21175166	344.34158403	-77.38268012	174.22313729
0.09000000	2004.24635506	1997.37014687	1749.85845869	1411.23193608	1576.34995021	1361.88799586	1289.50987452	344.31260680	-77.38256088	174.23079137
0.10000000	2001.73226292	1996.40400307	1749.96389644	1411.91047181	1575.61530907	1361.33555900	1289.94860677	344.28357141	-77.38226588	174.23777119
0.11000000	1998.84945690	1995.21100596	1750.03342129	1412.59070745	1575.06505126	1360.69030852	1290.49651143	344.25468993	-77.38179150	174.24359642
0.12000000	1995.81491763	1993.86355111	1750.05654717	1413.24291589	1574.79124535	1359.97908425	1291.12215152	344.22617439	-77.38113412	174.24778672
0.13000000	1992.84562573	1992.43403409	1750.02278800	1413.83737004	1574.88595990	1359.22872603	1291.79409006	344.19823685	-77.38029013	174.24986177
0.14000000	1990.14999448	1990.99625983	1749.92348800	1414.34698100	1575.42737591	1358.46550506	1292.48076386	344.17110461	-77.37927148	174.24944777
0.15000000	1987.84799120	1989.63858303	1749.76888658	1414.77189559	1576.35030467	1357.70982223	1293.14930654	344.14516255	-77.37825098	174.24727073
0.16000000	1986.00740482	1988.45794197	1749.58037034	1415.12832832	1577.50497697	1356.97861526	1293.76608294	344.12088848	-77.37749630	174.24470550
0.17000000	1984.69534986	1987.55138586	1749.37946995	1415.43270131	1578.74053044	1356.28877712	1294.29744798	344.09876142	-77.37727637	174.24313531
0.18000000	1983.97894086	1987.01596392	1749.18771607	1415.70143672	1579.90610270	1355.65720077	1294.70975654	344.07926040	-77.37786009	174.24394339
0.19000000	1983.92529236	1986.94872537	1749.02663938	1415.95095671	1580.85083138	1355.10077917	1294.96936355	344.06286443	-77.37951637	174.24851298
0.20000000	1984.57426535	1987.42729954	1748.91514945	1416.19321646	1581.44083790	1354.63592796	1295.04961301	344.04994462	-77.38242500	174.25812783
0.21000000	1985.76430019	1988.38579058	1748.85278439	1416.40715768	1581.66776456	1354.27553506	1294.97550270	344.04007440	-77.38610704	174.27333657
0.22000000	1987.24355989	1989.69397428	1748.83040000	1416.55692529	1581.57951250	1354.03090728	1294.79518182	344.03246972	-77.38978833	174.29435831
0.23000000	1988.75978165	1991.22132296	1748.83881107	1416.60659445	1581.22424824	1353.91334394	1294.55690875	344.02634482	-77.39269330	174.32141063
0.24000000	1990.06070264	1992.83730895	1748.86883244	1416.52024029	1580.65013829	1353.93414439	1294.30894188	344.02091395	-77.39404639	174.35471109
0.25000000	1990.89406004	1994.41140459	1748.91127893	1416.26193795	1579.90534916	1354.10460796	1294.09953960	344.01539137	-77.39307204	174.39447727
0.26000000	1991.00759105	1995.81308221	1748.95696534	1415.79576258	1579.03804737	1354.43603398	1293.97696030	344.00899132	-77.38899469	174.44092673
0.27000000	1990.14903285	1996.91181414	1748.99670650	1415.08578932	1578.09639942	1354.93972180	1293.98946237	344.00092805	-77.38103877	174.49427705
0.28000000	1988.13873861	1997.59949275	1749.02279809	1414.11589505	1577.12884440	1355.61736383	1294.17247734	343.99064629	-77.36867658	174.55451804
0.29000000	1985.18982547	1997.88927547	1749.03554540	1412.97706000	1576.18529560	1356.41869080	1294.49205918	343.97883727	-77.35272097	174.62040769
0.30000000	1981.64759355	1997.83513098	1749.03794932	1411.79630953	1575.31616246	1357.27594597	1294.89091310	343.96661175	-77.33443595	174.69028943
0.31000000	1977.85744262	1997.49105871	1749.03301280	1410.70069618	1574.57185481	1358.12135941	1295.31172674	343.95508081	-77.31508590	174.76250635
0.32000000	1974.16477243	1996.91105806	1749.02373876	1409.81727249	1574.00278245	1358.88716117	1295.69718773	343.94535553	-77.29593516	174.83540158
0.33000000	1970.91498276	1996.14912848	1749.01313014	1409.27309100	1573.65935522	1359.50558133	1295.98998369	343.93854697	-77.27824810	174.90731820
0.34000000	1968.45347334	1995.25926939	1749.00418986	1409.19520425	1573.59198292	1359.90884997	1296.13280226	343.93576623	-77.26328908	174.97659934
0.35000000	1967.12564395	1994.29548021	1748.99992086	1409.71066477	1573.85107537	1360.02919714	1296.06833106	343.93812437	-77.25232245	175.04158809
0.36000000	1967.22544699	1993.31389912	1749.00275448	1410.92118255	1574.47690502	1359.81117359	1295.74966788	343.94655342	-77.24644689	175.10072147
0.37000000	1968.51571227	1992.39274394	1749.00922121	1412.66684072	1575.40509005	1359.32652391	1295.23738085	343.96013691	-77.24505063	175.15340586
0.38000000	1970.44593575	1991.62325832	1749.01237035	1414.63337663	1576.50950820	1358.72203028	1294.65543986	343.97686788	-77.24651279	175.19961953
0.39000000	1972.46156359	1991.09685423	1749.00520619	1416.50453273	1577.66323925	1358.14544469	1294.12863427	343.99472528	-77.24919948	175.23934814
0.40000000	1974.04375638	1990.89615194	1748.98153497	1417.98539709	1578.74617723	1357.73385723	1293.77260018	344.01181084	-77.25157685	175.27263645
0.41000000	1975.04237646	1991.01300923	1748.94344153	1419.00142154	1579.70856406	1357.51428860	1293.60847924	344.02749403	-77.25314403	175.30013920
0.42000000	1975.52480043	1991.38573887	1748.89789465	1419.60806076	1580.54214313	1357.44882440	1293.60166641	344.04189222	-77.25400951	175.32287099
0.43000000	1975.56121624	1991.95196160	1748.85192627	1419.86244968	1581.23919425	1357.49871099	1293.71683613	344.05513244	-77.25428969	175.34185108
0.44000000	1975.22181183	1992.64929814	1748.81256830	1419.82172323	1581.79199719	1357.62519473	1293.91866284	344.06734172	-77.25410095	175.35809873
0.45000000	1974.57677515	1993.41536921	1748.78685265	1419.54301634	1582.19283175	1357.78952194	1294.17182100	344.07864710	-77.25355967	175.37263319
0.46000000	1973.69629413	1994.18779554	1748.78181125	1419.08346395	1582.43397773	1357.95293900	1294.44098504	344.08917560	-77.25278223	175.38647373
0.47000000	1972.65055672	1994.90419786	1748.80447602	1418.50020098	1582.50771492	1358.07669223	1294.69082942	344.09905426	-77.25188503	175.40063961
0.48000000	1971.50975086	1995.50219689	1748.86187887	1417.85036238	1582.40632310	1358.12202800	1294.88602858	344.10841010	-77.25098444	175.41615007
0.49000000	1970.34406451	1995.91941336	1748.96105172	1417.19108306	1582.12208207	1358.05019265	1294.99125696	344.11737017	-77.25019684	175.43402438
0.50000000	1969.22590785	1996.09836590	1749.10743578	1416.57857907	1581.64990255	1357.82802311	1294.97625925	344.12606318	-77.24962971	175.45516078
0.51000000	1968.25063279	1996.03213735	1749.29005033	1416.05958002	1581.01185578	1357.48007148	1294.86312339	344.13463534	-77.24929833	175.47920821
0.52000000	1967.52712564	1995.74364069	1749.48822660	1415.67521907	1580.24603632	1357.06493865	1294.70481699	344.14324317	-77.24916363	175.50507859
0.53000000	1967.16444759	1995.25617445	1749.68117061	1415.46655705	1579.39074578	1356.64166561	1294.55470681	344.15204332	-77.24918584	175.53167430
0.54000000	1967.27165989	1994.59303717	1749.84808836	1415.47465478	1578.48428581	1356.26929335	1294.46615958	344.16119245	-77.24932519	175.55789774
0.55000000	1967.95782374	1993.77752739	1749.96818588	1415.74057308	1577.56495804	1356.00686285	1294.49254206	344.17084721	-77.24954191	175.58265129
0.56000000	1969.33200036	1992.83294364	1750.02066917	1416.30537277	1576.67106410	1355.91341509	1294.68722097	344.18116425	-77.24979622	175.60483734
0.57000000	1971.50258361	1991.78261744	1749.98481819	1417.20985411	1575.84090143	1356.04779830	1295.10336005	344.19229917	-77.25004836	175.62336179
0.58000000	1974.43648527	1990.65687305	1749.85558951	1418.43957586	1575.11187931	1356.42799512	1295.75108123	344.20418290	-77.25026169	175.63787169
0.59000000	1977.78495191	1989.50163643	1749.66291622	1419.85684575	1574.51942539	1356.98081173	1296.54447455	344.21624512	-77.25040655	175.64966774
